<?xml version="1.0" standalone="no"?>
<!DOCTYPE svg PUBLIC "-//W3C//DTD SVG 1.1//EN" "http://www.w3.org/Graphics/SVG/1.1/DTD/svg11.dtd" >
<!--
2013-9-30: Created.
-->
<svg>
<metadata>
Created by iconfont
</metadata>
<defs>

<font id="iconfont" horiz-adv-x="1024" >
  <font-face
    font-family="iconfont"
    font-weight="500"
    font-stretch="normal"
    units-per-em="1024"
    ascent="896"
    descent="-128"
  />
    <missing-glyph />
    
    <glyph glyph-name="x" unicode="x" horiz-adv-x="1001"
d="M281 543q-27 -1 -53 -1h-83q-18 0 -36.5 -6t-32.5 -18.5t-23 -32t-9 -45.5v-76h912v41q0 16 -0.5 30t-0.5 18q0 13 -5 29t-17 29.5t-31.5 22.5t-49.5 9h-133v-97h-438v97zM955 310v-52q0 -23 0.5 -52t0.5 -58t-10.5 -47.5t-26 -30t-33 -16t-31.5 -4.5q-14 -1 -29.5 -0.5
t-29.5 0.5h-32l-45 128h-439l-44 -128h-29h-34q-20 0 -45 1q-25 0 -41 9.5t-25.5 23t-13.5 29.5t-4 30v167h911zM163 247q-12 0 -21 -8.5t-9 -21.5t9 -21.5t21 -8.5q13 0 22 8.5t9 21.5t-9 21.5t-22 8.5zM316 123q-8 -26 -14 -48q-5 -19 -10.5 -37t-7.5 -25t-3 -15t1 -14.5
t9.5 -10.5t21.5 -4h37h67h81h80h64h36q23 0 34 12t2 38q-5 13 -9.5 30.5t-9.5 34.5q-5 19 -11 39h-368zM336 498v228q0 11 2.5 23t10 21.5t20.5 15.5t34 6h188q31 0 51.5 -14.5t20.5 -52.5v-227h-327z" />
    

    
    <glyph glyph-name="accessory" unicode="&#58920;" d="M844.936192 405.04832c-0.848896-0.802816-1.713152-1.655808-2.6368-2.605056L540.56448 100.637696l-0.108544-0.106496c-0.768-0.590848-1.488896-1.232896-2.162688-1.923072-75.24352-72.900608-196.484096-72.03328-270.539776 2.041856-74.2144 74.177536-74.966016 195.656704-1.692672 270.83264 5.213184 5.246976 342.571008 342.888448 345.972736 346.293248 52.82304 52.77184 138.759168 52.77184 191.561728 0.00512 25.491456-25.48224 39.514112-59.401216 39.487488-95.507456-0.026624-36.222976-14.174208-70.25664-39.8592-95.855616L455.903232 179.12524800000006c-29.314048-26.641408-74.149888-25.53344-102.264832 2.604032-28.105728 28.080128-29.03552 73.0368-2.117632 102.346752 0.487424 0.531456 0.941056 1.08032 1.36192 1.644544l0.100352 0.100352c0.116736 0.116736 0.232448 0.234496 0.346112 0.354304l0.86528 0.832512c0.093184 0.089088 0.185344 0.180224 0.27648 0.27136l301.94688 301.9776c7.998464 7.998464 7.99744 20.965376-0.001024 28.96384-7.998464 7.99744-20.967424 7.996416-28.962816-0.001024L325.643264 316.379136l-1.292288-1.245184c-0.274432-0.264192-0.541696-0.535552-0.800768-0.816128l-3.378176-3.36896c-0.002048-0.002048-0.004096-0.004096-0.006144-0.006144-1.352704-1.349632-2.476032-2.8416-3.372032-4.426752-37.081088-45.508608-34.138112-111.768576 7.880704-153.750528 43.764736-43.799552 113.71008-45.350912 159.238144-3.528704 0.212992 0.19456 0.421888 0.395264 0.625664 0.600064l347.620352 347.595776c33.421312 33.308672 51.846144 77.63456 51.88096 124.812288 0.03584 47.060992-18.249728 91.278336-51.490816 124.509184-68.76672 68.718592-180.67456 68.721664-249.480192-0.011264L410.011648 573.534208 291.03616 454.449152l-53.84192-53.902336c-0.135168-0.136192-0.268288-0.273408-0.39936-0.410624l-0.004096 0.003072c-88.907776-91.143168-88.00768-238.4896 1.999872-328.45312 45.346816-45.35808 105.266176-68.079616 165.24288-68.074496 58.023936 0.00512 116.103168 21.281792 161.017856 63.908864 0.352256 0.27136 0.698368 0.555008 1.037312 0.850944 0.297984 0.26112 0.587776 0.530432 0.8704 0.806912l2.2272 2.158592c0.0768 0.074752 0.1536 0.149504 0.2304 0.226304L871.36256 373.58079999999995c0.072704 0.072704 0.145408 0.146432 0.217088 0.22016 0.47616 0.490496 0.964608 0.982016 1.483776 1.472512 8.221696 7.768064 8.59136 20.729856 0.82432 28.951552C866.11968 412.44672 853.158912 412.816384 844.936192 405.04832z"  horiz-adv-x="1024" />

    
    <glyph glyph-name="down" unicode="&#58977;" d="M890.336 565.088c-12.576 12.416-32.8 12.352-45.248-0.192L517.248 234.048 184.832 563.488c-12.576 12.448-32.8 12.352-45.28-0.192-12.448-12.576-12.352-32.832 0.192-45.28l353.312-350.112c0.544-0.544 1.248-0.672 1.792-1.184 0.128-0.128 0.16-0.288 0.288-0.416 6.24-6.176 14.4-9.28 22.528-9.28 8.224 0 16.48 3.168 22.72 9.472l350.112 353.312C902.976 532.384 902.88 552.64 890.336 565.088z"  horiz-adv-x="1024" />

    
    <glyph glyph-name="right" unicode="&#59043;" d="M761.056 363.87199999999996c0.512 0.992 1.344 1.824 1.792 2.848 8.8 18.304 5.92 40.704-9.664 55.424L399.936 756.256c-19.264 18.208-49.632 17.344-67.872-1.888-18.208-19.264-17.376-49.632 1.888-67.872l316.96-299.84-315.712-304.288c-19.072-18.4-19.648-48.768-1.248-67.872 9.408-9.792 21.984-14.688 34.56-14.688 12 0 24 4.48 33.312 13.44l350.048 337.376c0.672 0.672 0.928 1.6 1.6 2.304 0.512 0.48 1.056 0.832 1.568 1.344C757.76 357.12 759.2 360.60799999999995 761.056 363.87199999999996z"  horiz-adv-x="1024" />

    
    <glyph glyph-name="remark" unicode="&#59065;" d="M617.572762 641.716915l157.078022-157.078022-366.515386-366.515386-157.078022 157.078022 366.515386 366.515386ZM134.208 29.375999999999976l64.512 193.472 157.056-157.056L162.304 1.2799999999999727C144.96-4.480000000000018 128.384 12.032000000000039 134.208 29.375999999999976zM826.944 537.024l-157.056 157.056 52.352 52.352c28.928 28.928 75.776 28.928 104.704 0l52.352-52.352c28.928-28.928 28.928-75.776 0-104.704L826.944 537.024z"  horiz-adv-x="1024" />

    
    <glyph glyph-name="biaoqian" unicode="&#59018;" d="M188.581518 826.575838l0-885.151675 323.420017 305.347406 323.417971-305.347406L835.419506 826.575838 188.581518 826.575838zM188.581518 826.575838"  horiz-adv-x="1024" />

    
    <glyph glyph-name="folder" unicode="&#58893;" d="M1017.815137 634.135944c-6.839779 8.151657-17.086144 12.82612-28.112268 12.82612l-34.222429 0L955.48044 751.425254l0 0c0 11.30344-9.162684 20.466124-20.466124 20.466124L367.889835 771.891378l-56.155974 76.133981c-3.444449 6.449899-10.236132 10.841929-18.059308 10.841929L21.48943 858.867288c-4.474918 0-8.600889-1.452071-11.968589-3.888564-5.550413-3.660366-9.217942-9.943466-9.217942-17.089214l0-820.519656c-1.261737-10.336416 1.642406-20.525476 8.111748-28.236088 6.839779-8.150634 17.08512-12.825097 28.111245-12.825097l842.142116 0c20.355607 0 39.092343 15.830547 42.658565 36.041868l104.290251 591.46075C1027.563152 614.853785 1024.719384 625.906515 1017.815137 634.135944zM283.532565 817.936063l58.45125-79.246879c3.548826-4.466732 8.595772-7.023974 13.849426-7.549953 0.846274-0.106424 1.701758-0.180102 2.576685-0.180102l556.137243 0 0-83.997066L147.561777 646.962064c-20.35663 0-39.093367-15.83157-42.657542-36.040844L41.234123 249.83432400000004 41.234123 817.936063 283.532565 817.936063zM881.015472 19.464563c-0.168846-0.785899-1.574868-2.076288-2.409886-2.223644L41.785685 17.240918999999963l103.427604 586.566276c0.170892 0.794086 1.607614 2.104941 2.347464 2.222621l836.880275 0L881.015472 19.464563z"  horiz-adv-x="1027" />

    
    <glyph glyph-name="wendang" unicode="&#58911;" d="M376.097774 344.829885l173.962054 0 0-34.792411-173.962054 0 0 34.792411ZM376.097774 222.033142l243.546875 0 0-34.792411-243.546875 0 0 34.792411ZM376.097774 466.603323l243.546875 0 0-34.792411-243.546875 0 0 34.792411ZM799.170418-51.106726 225.645157-51.106726c-29.241998 0-52.213175 24.619724-52.213175 53.861722l-0.815575 764.138554c0 29.259394 22.970154 52.213175 52.213175 52.213175l404.64904 0c12.534478 0 24.704658-4.461615 34.256198-12.551874l170.065304-173.447331c10.741645-8.999978 16.766872-24.594141 16.766872-40.212864l0.815575-591.787184C851.382571-28.161131 828.412416-51.106726 799.170418-51.106726zM224.829582 784.297942c-10.044774 0-18.219967-8.175193-18.219967-18.219967l0.815575-764.138554c0-10.06217 8.175193-18.237363 18.219967-18.237363l573.525262 0c10.044774 0 18.219967 8.175193 18.219967 18.219967l-0.815575 591.787184c0 5.395894-2.353604 10.461259-6.459109 13.93743L640.058584 781.09397c-2.098801 1.674129-6.271844 3.203972-10.579963 3.203972L224.829582 784.297942zM828.399113 588.376761 619.644649 588.376761 619.644649 797.131225 654.43706 797.131225 654.43706 623.169171 828.399113 623.169171Z"  horiz-adv-x="1024" />

    
    <glyph glyph-name="phone" unicode="&#58884;" d="M752.881958-128c-66.06485 0-151.355467 44.010242-211.273685 80.940261-80.243023 49.444864-166.687334 117.852554-243.416096 192.607776l-0.276237 0.276237-24.361995 24.367904C198.792815 246.915031 130.392511 333.36525099999994 80.940261 413.606796 44.016151 473.526491 0 558.817108 0 624.8819579999999c0 70.697351 50.554242 145.734718 72.291251 174.712966C89.249516 822.20939 148.50447 896 198.850426 896c20.674902 0 42.937795-13.531159 72.198187-43.877294 25.880557-26.831875 50.715257-60.184113 66.9881-83.439685 21.85814-31.222115 42.070678-63.911091 56.923931-92.053243 24.050306-45.56278 26.831875-65.100238 26.831875-75.833578 0-21.661672-11.315358-40.450188-33.624044-55.839666-14.690762-10.13212-32.324107-17.760385-49.375435-25.14048-11.501485-4.973735-29.867522-12.913689-36.872408-18.500462 2.446244-10.350746 13.126406-35.347937 41.99534-77.731781 26.901303-39.491485 61.684949-82.290423 93.110918-114.562828 32.266496-31.42006 75.059525-66.209615 114.562828-93.110918 42.372027-28.857117 67.369218-39.543187 77.72735-41.989432 5.579387 7.004886 13.52525 25.365014 18.498985 36.866499 7.374186 17.05576 15.002451 34.690583 25.14048 49.381344 15.389478 22.308686 34.177994 33.618135 55.839666 33.618135 10.733341 0 30.270798-2.781569 75.839487-26.825966 28.136243-14.853254 60.831127-35.065792 92.048811-56.923931 23.254094-16.278752 56.606333-41.113452 83.444117-66.9881 30.340226-29.260393 43.871385-51.523285 43.871385-72.198187 0-50.345956-73.784701-109.600911-96.399167-126.560653C898.616677-77.44575799999996 823.579309-128 752.881958-128L752.881958-128zM340.528751 188.72070699999995"  horiz-adv-x="1024" />

    
    <glyph glyph-name="enditor" unicode="&#58965;" d="M358.277408 334.19978100000003c-0.596588-0.759293-1.193175-1.559519-1.461281-2.52245l-46.050826-168.836313c-2.685155-9.829879 0.065492-20.422122 7.342222-27.889187 5.442966-5.317099 12.614296-8.239662 20.252253-8.239662 2.52245 0 5.050016 0.301875 7.537673 0.962931l167.638021 45.722344c0.26913 0 0.399089-0.23536 0.601704-0.23536 1.925862 0 3.817955 0.700965 5.246491 2.161223l448.270537 448.205045c13.31526 13.332656 20.61655 31.494295 20.61655 51.254338 0 22.38994-9.496282 44.770669-26.126031 61.356416L919.809521 778.541845c-16.604166 16.629749-39.016619 26.143427-61.396325 26.143427-19.754926 0-37.915541-7.303336-51.264571-20.602224L358.944604 335.758276C358.478999 335.33053399999994 358.609982 334.69710699999996 358.277408 334.19978100000003M923.791206 667.424094l-44.526099-44.49233-72.180949 73.327052 43.894719 43.895743c6.935969 6.973832 20.384259 5.956665 28.353768-2.041496l42.363853-42.402739c4.420683-4.41352 6.941086-10.289344 6.941086-16.099676C928.610978 674.8481810000001 926.914336 670.526759 923.791206 667.424094M437.999101 327.15738699999997l323.465043 323.483462 72.216765-73.376171-322.863339-322.847989L437.999101 327.15738699999997 437.999101 327.15738699999997zM379.065873 196.00944200000004l23.375383 85.799108 62.352093-62.358233L379.065873 196.00944200000004 379.065873 196.00944200000004zM927.623487 489.807814c-16.968463 0-31.904641-13.796214-31.970132-30.994921l0-419.411255c0-21.913079-17.796318-38.907125-39.744189-38.907125L166.418752 0.49451299999998355c-21.914102 0-38.247092 16.991999-38.247092 38.907125L128.17166 729.639065c0 21.930475 16.331967 38.441521 38.247092 38.441521l473.184973 0c17.063631 0 30.908964 15.163351 30.908964 32.232099 0 17.034978-13.846356 31.68156-30.908964 31.68156L161.703357 831.994244c-53.42477 0-97.827049-44.216038-97.827049-97.67253l0-699.637518c0-53.458539 44.403303-98.422613 97.827049-98.422613l698.884364 0c53.463656 0 98.967012 44.964074 98.967012 98.422613l0 424.324148C959.489242 476.0116 944.587857 489.807814 927.623487 489.807814"  horiz-adv-x="1024" />

    
    <glyph glyph-name="down-arrow" unicode="&#58885;" d="M642.820488 477.292779c6.67912 0 13.386892-2.514263 18.522865-7.623631 10.345626-10.216689 10.44898-26.877137 0.207731-37.250392l0 0L531.091824 300.51663399999995c-7.702426-7.806803-19.071358-9.745968-28.632107-5.868661-0.603751 0.236384-1.075495 0.811482-1.651616 1.103124-2.434445 1.203408-4.89652 2.514263-6.943133 4.557806-0.023536 0.023536-0.023536 0.051165-0.052189 0.079818-0.023536 0.023536-0.051165 0.023536-0.075725 0.051165l-131.167389 130.800022c-10.296507 10.268878-10.320043 26.929326-0.051165 37.250392 5.131881 5.160533 11.919471 7.754614 18.650779 7.754614L642.820488 477.292779 642.820488 477.292779zM642.820488 477.292779"  horiz-adv-x="1024" />

    
    <glyph glyph-name="search" unicode="&#58922;" d="M467.078 179.08500000000004c-157.322 0-284.859 125.325-284.859 280.133 0 154.818 127.537 280.377 284.859 280.377 157.323 0 284.872-125.558 284.872-280.377 0-154.808-127.549-280.133-284.872-280.133v0zM922.976 34.025999999999954l-206.539 203.338c54.051 58.791 87.294 136.317 87.294 221.855 0 183.079-150.703 331.401-336.652 331.401-185.936 0-336.651-148.322-336.651-331.401 0-182.847 150.716-331.157 336.651-331.157 80.335 0 154.026 27.772 211.889 74.033l207.42-204.073c10.111-10.015 26.501-10.015 36.588 0 10.137 9.744 10.137 25.989 0 36.004v0z"  horiz-adv-x="1024" />

    
    <glyph glyph-name="back" unicode="&#59010;" d="M584.470443 218.082c-3.66 0-6.515 0-9.36 0-97.805 0-195.607-0.01-293.414 0-14.5 0.005-23.95 6.65-26.28 18.54-0.458 2.375-0.415 4.87-0.415 7.3-0.018 86.915-0.02 173.825-0.012 260.739 0.003 16.485 8.93 25.255 25.672 25.255 98.247 0.005 196.497 0.005 294.749 0.005 2.645 0 5.31 0 9.06 0 0 2.82 0 5.362 0 7.912 0 77.352-0.01 154.71 0.01 232.069 0 10.645 5.075 19.135 13.67 22.387 9.89 3.745 18.665 2.02 26.12-5.857 4.275-4.517 8.93-8.672 13.32-13.065 55.385-55.265 110.76-110.555 166.13-165.82 71.12-70.965 142.245-141.912 213.365-212.874 11.84-11.802 11.905-24.252 0.205-35.927-101.78-101.605-203.549-203.219-305.359-304.784-28.955-28.885-58.065-57.595-86.995-86.505-7.445-7.45-15.75-10.715-25.915-6.855-9.885 3.75-14.54 11.53-14.54 23.765-0.015 74.905-0.01 149.82-0.01 224.724C584.470443 211.73699999999997 584.470443 214.37699999999995 584.470443 218.082zM401.643443 789.828c0-29.415 0-58.215 0-87.827-2.882 0-5.477 0-8.07 0-74.465 0-148.93 0.01-223.394-0.005-47.187-0.007-81.935-34.827-81.937-82.107-0.007-163.602 0.293-327.202-0.197-490.791-0.135-43.285 32.795-74.47 63.24-80.165 6.727-1.245 13.677-1.81 20.525-1.825 73.797-0.13 147.597-0.08 221.397-0.08 2.622 0 5.247 0 8.302 0 0-29.325 0-58.115 0-87.325-1.05-0.21-2.275-0.68-3.503-0.68-78.467 0-156.942-0.8-235.389 0.34-76.67 1.1-144.565 59.285-159.197 134.595-2.065 10.61-3.075 21.595-3.087 32.405-0.19 165.385-0.627 330.762 0.102 496.134 0.305 69.077 34.625 118.665 94.56 150.892 21.145 11.375 44.502 16.512 68.577 16.572 77.797 0.21 155.595 0.08 233.394 0.075C398.281443 790.035 399.593443 789.92 401.643443 789.828z"  horiz-adv-x="1027" />

    
    <glyph glyph-name="ppt" unicode="&#58941;" d="M405.637042 378.393305c4.240581 5.614881 6.112208 15.908318 5.614881 30.880311-0.499373 12.475126-2.778276 21.709441-6.830569 27.698852-4.056386 5.989411-11.012821 8.983605-20.868283 8.983605L273.132192 445.956074l0-75.985602 110.420879 0C394.034796 369.971495 401.394415 372.778424 405.637042 378.393305zM862.278223 831.155133 287.963992 831.155133c-52.79032 0-95.681176-42.893926-95.681176-95.684246l0-95.681176-63.788815 0c-35.19457 0-63.787792-28.593222-63.787792-63.788815l0-382.954949c0-35.192523 28.593222-63.782675 63.787792-63.782675l63.788815 0 0-95.685269c0-52.788274 42.890856-95.684246 95.681176-95.684246l574.314231 0c52.78725 0 95.684246 42.895973 95.684246 95.684246L957.962469 735.470887C958.069917 788.26223 915.065474 831.155133 862.278223 831.155133zM214.178499 249.068891l0 254.905574 182.475961 0c16.84362 0 29.631878-2.65241 38.366819-7.954159 8.731872-5.304819 15.033391-11.106965 18.902512-17.405415 3.866051-6.30152 6.644327-13.320377 8.328689-21.055548 1.684362-7.737218 2.682086-17.685801 2.994194-29.850865 0.310062-12.165064 0.341784-24.488741 0.093121-36.963866-0.500397-19.089777-2.526543-33.564443-6.082532-43.419905-3.555989-9.857509-8.328689-17.342993-14.317077-22.457478-5.989411-5.117554-12.385075-8.454556-19.183921-10.013051-6.801916-1.561565-16.314571-2.339278-28.541033-2.339278L273.132192 312.514899l0-63.446008L214.178499 249.068891zM894.169561 33.468508c0-17.594727-14.295588-31.890314-31.891338-31.890314L287.963992 1.578194c-17.59575 0-31.894408 14.295588-31.894408 31.890314l0 95.686293 255.263731 0c35.1915 0 63.788815 28.590152 63.788815 63.781652l0 63.792908 223.3683 0c17.594727 0 31.896454 14.295588 31.896454 31.893384 0 17.59575-14.301727 31.891338-31.896454 31.891338L575.121108 320.514083l0 63.791885 223.3683 0c17.594727 0 31.896454 14.296611 31.896454 31.892361 0 17.59575-14.301727 31.895431-31.896454 31.895431L575.121108 448.09376l0 63.788815 223.3683 0c17.594727 0 31.896454 14.297634 31.896454 31.894408 0 17.59575-14.301727 31.893384-31.896454 31.893384L575.121108 575.670367c0 35.19457-28.597315 63.787792-63.788815 63.787792l-255.263731 0 0 95.681176c0 17.59882 14.298658 31.896454 31.894408 31.896454l574.314231 0c17.59575 0 31.891338-14.297634 31.891338-31.896454L894.168538 33.468508z"  horiz-adv-x="1024" />

    
    <glyph glyph-name="tupian" unicode="&#58997;" d="M927.256632 719.459215c0.173962 22.081924-11.486612 29.368888-29.913287 29.340235-246.752894-0.381693-493.50681-0.25378-740.260727-0.25685-22.390963 0-29.29521-6.986111-29.29521-29.712719-0.007163-212.372875-0.007163-424.74575 0-637.118626 0.001023-21.889543 7.136537-29.075199 28.862351-29.077246 123.19788-0.007163 246.394736-0.00307 369.592616-0.00307 124.272351 0 248.544703-0.005117 372.817054 0.005117 20.437471 0.002047 27.731598 6.630001 27.76332 26.495444 0.203638 128.925325 0.276293 257.851673 0.305969 386.776997C927.147138 550.425404 926.589436 634.946402 927.256632 719.459215zM170.97707 705.274144c237.364059 0 474.585879 0 712.950731 0 0-156.443052 0-312.14216 0-470.915279-4.339842 5.430686-7.052626 9.193383-10.134825 12.624529-18.602683 20.705578-35.375695 43.566238-56.32789 61.547775-51.296293 44.023656-112.150266 46.419216-168.149675 8.394181-15.566534-10.56973-29.129434-24.12649-43.369763-36.589336-3.944845-3.451612-7.020904-7.894807-11.616572-13.170974-9.917884 21.798469-18.432815 41.72531-27.939329 61.168128-23.680329 48.433082-50.318012 95.011934-91.131557 131.48973-31.160697 27.850301-66.682725 44.272319-109.828384 37.275975-32.280194-5.234211-58.642608-22.054295-82.386382-43.419905-34.715663-31.239492-60.783365-69.255317-84.342943-109.169375-8.624425-14.609743-17.35732-29.15604-27.722388-43.091424C170.97707 435.795667 170.97707 570.173167 170.97707 705.274144zM883.945197 95.970004c-237.912551 0-475.003388 0-713.331401 0 0 24.647353-0.636496 48.91199 0.283456 73.118298 0.423649 11.141758 2.167363 22.858614 6.266727 33.135678 27.254737 68.325132 59.446927 134.054135 106.610086 191.291744 16.448624 19.961634 34.82311 37.933961 57.719586 50.739615 31.667234 17.71036 62.280462 15.844873 91.745541-4.830005 24.74559-17.36346 43.101657-40.697911 59.380412-65.735144 36.71725-56.470129 61.21827-118.639051 84.173075-181.510984 1.823532-4.993734 3.731998-9.955746 6.401804-17.066701 2.801812 4.366448 4.901637 7.327896 6.685259 10.467399 17.954931 31.594579 38.123272 61.463864 66.718541 84.628446 6.652514 5.38873 13.608949 10.522658 20.923542 14.951527 37.990243 22.99983 74.371848 20.999266 109.840664-5.957689 27.263947-20.720927 47.27163-47.721885 64.450894-76.835969 10.522658-17.833157 19.671015-36.480866 29.314653-54.827723 1.304715-2.481518 2.64013-5.325285 2.690272-8.024767C884.086413 125.262144 883.945197 111.003396 883.945197 95.970004zM729.842447 495.865787c30.261211 0.207731 55.189973 25.419949 55.16746 55.796794-0.022513 30.756491-24.387433 55.196113-55.142901 55.31277-30.517037 0.115634-55.669904-24.446785-56.07104-54.750975C673.395854 522.004097 699.596586 495.658056 729.842447 495.865787z"  horiz-adv-x="1024" />

    
    <glyph glyph-name="add" unicode="&#58908;" d="M922.002466 347.555973c-5.358031 0-10.411117 1.228991-14.987343 3.294023-3.751441-1.941212-7.826246-3.294023-12.347213-3.294023l-355.332844 0 0-355.334891c0-1.064238-0.497327-1.989307-0.603751-3.025916 0.320295-1.989307 0.603751-4.002151 0.603751-6.082532 0-20.12741-16.318664-36.446074-36.443004-36.446074-20.12741 0-36.446074 16.318664-36.446074 36.446074 0 2.080382 0.275269 4.093225 0.613984 6.082532-0.124843 1.036609-0.613984 1.961678-0.613984 3.025916L466.44599 347.555973l-355.332844 0c-1.076518 0-1.992377 0.49835-3.03308 0.624217-1.984191-0.338714-3.994987-0.624217-6.077416-0.624217-20.125363 0-36.44505 16.317641-36.44505 36.446074 0 20.12434 16.319687 36.443004 36.44505 36.443004 2.082428 0 4.093225-0.283456 6.077416-0.604774 1.040702 0.105401 1.956561 0.604774 3.03308 0.604774l355.332844 0L466.44599 775.778918c0 1.085728 0.48914 1.992377 0.613984 3.043313-0.338714 1.974981-0.613984 3.985778-0.613984 6.068206 0 20.125363 16.318664 36.444027 36.446074 36.444027 20.12434 0 36.443004-16.318664 36.443004-36.444027 0-2.082428-0.283456-4.093225-0.603751-6.085602 0.106424-1.032516 0.603751-1.940189 0.603751-3.024893l0-355.333868 355.332844 0c4.520967 0 8.595772-1.351787 12.347213-3.290953 4.577249 2.064009 9.629311 3.290953 14.987343 3.290953 20.12434 0 36.440957-16.318664 36.440957-36.443004C958.443423 363.873614 942.126806 347.555973 922.002466 347.555973z"  horiz-adv-x="1024" />

    
    <glyph glyph-name="excel" unicode="&#58912;" d="M64 640l0-512 512 0L576 640 64 640zM432 256l-96 0-28.448 56.896L272 256l-64 0 71.104 113.792L208 512l96 0 28.448-56.896L368 512l64 0-71.104-113.792L432 256zM960 768 960 0 960-64 896-64 256-64 192-64 192 0 192 96 256 96 256 0 896 0 896 768 256 768 256 672 192 672 192 768 192 832 256 832 896 832 960 832ZM608 448l224 0 0-64-224 0 0 64ZM608 576l224 0 0-64-224 0 0 64ZM608 320l224 0 0-64-224 0 0 64Z"  horiz-adv-x="1024" />

    
    <glyph glyph-name="shanchu" unicode="&#58897;" d="M1024 708.544c0-17.664-12.736-32-28.416-32H28.416c-15.68 0-28.416 14.336-28.416 32s12.736 32 28.416 32h967.104c15.744 0 28.48-14.336 28.48-32zM656.064 850.688c0-17.664-15.616-32-34.816-32H402.752c-19.2 0-34.816 14.336-34.816 32s15.616 32 34.816 32h218.496c19.2 0 34.816-14.336 34.816-32zM783.232-114.624H240.768a145.92 145.92 0 0 0-145.792 145.728V710.336h64v-679.168c0-45.056 36.672-81.728 81.792-81.728h542.528c45.056 0 81.728 36.672 81.728 81.728V710.336h64v-679.168a145.92 145.92 0 0 0-145.792-145.792zM421.696 57.792c0-15.68-14.336-28.416-32-28.416s-32 12.736-32 28.416v512c0 15.68 14.336 28.416 32 28.416s32-12.736 32-28.416v-512zM666.304 57.792c0-15.68-14.4-28.416-32-28.416-17.728 0-32 12.736-32 28.416v512c0 15.68 14.272 28.416 32 28.416 17.6 0 32-12.736 32-28.416v-512z"  horiz-adv-x="1024" />

    
    <glyph glyph-name="edit" unicode="&#58923;" d="M314.832 178.38699999999994l-1.184-3.906 166.055 54.562 336.613 336.254c10.887 10.891 16.922 25.449 16.922 40.895s-6.035 30.004-16.922 40.891l-30.184 30.121c-10.414 10.418-25.211 16.453-40.832 16.453-15.508 0-30.539-6.035-40.953-16.453L368.684 341.422l-53.852-163.035z m392 457.867l4.262 4.199c14.203 14.203 25.211 22.965 36.336 22.965 6.035 0 11.836-2.664 17.164-7.934l29.941-30.121c5.328-5.266 8.051-10.949 8.051-16.984 0-11.184-8.879-22.25-23.082-36.453l-4.141-4.203-68.531 68.531zM394.605 324.086l290.57 290.449 68.41-68.473-290.452-290.507-68.528 68.531z m-37.636-106.703l25.801 77.941 53.262-52.492-79.063-25.449zM817.973 462.742c-8.879 0-16.098-7.164-16.098-16.098v-350.812c0-13.141-10.77-23.91-23.789-23.91H227.602c-13.254 0-23.906 10.77-23.906 23.91V651.461c0 13.141 10.652 23.852 23.906 23.852h364.426c8.875 0 16.094 7.277 16.094 16.156 0 8.875-7.219 16.094-16.094 16.094H227.602c-30.891 0-56.102-25.148-56.102-56.102v-555.629c0-30.832 25.211-56.043 56.102-56.043h550.484c30.773 0 55.98 25.211 55.98 56.043V446.645c0 8.933-7.218 16.097-16.093 16.097z"  horiz-adv-x="1024" />

    
    <glyph glyph-name="right-arrow" unicode="&#58883;" d="M525.1 667.7l424.5-283-424.5-283.1zM171.3 667.7l424.5-283-424.5-283.1z"  horiz-adv-x="1024" />

    
    <glyph glyph-name="doc1" unicode="&#59110;" d="M858.453333 259.413333H298.666667c-17.066667 0-30.72-13.653333-30.72-30.72s13.653333-30.72 30.72-30.72h559.786666c17.066667 0 30.72 13.653333 30.72 30.72-1.706667 17.066667-13.653333 30.72-30.72 30.72zM858.453333 93.866667H298.666667c-17.066667 0-30.72-13.653333-30.72-30.72s13.653333-30.72 30.72-30.72h559.786666c17.066667 0 30.72 13.653333 30.72 30.72s-13.653333 30.72-30.72 30.72zM373.76 535.893333c0 34.133333-15.36 54.613333-37.546667 54.613334-23.893333 0-37.546667-20.48-37.546666-54.613334s13.653333-56.32 37.546666-56.32c23.893333 0 37.546667 22.186667 37.546667 56.32zM136.533333 590.506667h-6.826666v-110.933334H136.533333c29.013333 0 49.493333 13.653333 49.493334 56.32S163.84 590.506667 136.533333 590.506667zM988.16 629.76L730.453333 887.466667l-8.533333 8.533333H240.64c-44.373333 0-80.213333-35.84-80.213333-80.213333v-129.706667H88.746667c-34.133333 0-61.44-27.306667-61.44-61.44v-177.493333c0-34.133333 27.306667-61.44 61.44-61.44h71.68v-433.493334c0-44.373333 35.84-80.213333 80.213333-80.213333h675.84c44.373333 0 80.213333 35.84 80.213333 80.213333V621.226667l-8.533333 8.533333zM139.946667 447.146667H87.04V624.64h51.2c54.613333 0 90.453333-25.6 90.453333-88.746667s-35.84-88.746667-88.746666-88.746666z m776.533333-515.413334H240.64c-10.24 0-20.48 8.533333-20.48 20.48V385.706667h363.52c34.133333 0 61.44 27.306667 61.44 61.44V624.64c0 34.133333-27.306667 61.44-61.44 61.44H220.16V815.786667c0 10.24 8.533333 20.48 20.48 20.48h438.613333v-177.493334c0-44.373333 35.84-80.213333 80.213334-80.213333h177.493333v-626.346667c0-10.24-10.24-20.48-20.48-20.48zM254.293333 535.893333c0 58.026667 32.426667 92.16 81.92 92.16s81.92-34.133333 81.92-92.16c0-58.026667-32.426667-93.866667-81.92-93.866666-49.493333 1.706667-81.92 35.84-81.92 93.866666zM529.066667 479.573333c13.653333 0 25.6 6.826667 34.133333 17.066667l22.186667-27.306667c-15.36-17.066667-35.84-25.6-58.026667-25.6-46.08 0-83.626667 30.72-83.626667 92.16 0 59.733333 39.253333 93.866667 85.333334 93.866667 23.893333 0 42.666667-10.24 54.613333-23.893333l-22.186667-27.306667c-8.533333 8.533333-18.773333 13.653333-30.72 13.653333-23.893333 0-42.666667-20.48-42.666666-56.32-1.706667-35.84 15.36-56.32 40.96-56.32z"  horiz-adv-x="1024" />

    
    <glyph glyph-name="drag" unicode="&#58902;" d="M889.6 430.144l-149.248 139.968A21.056 21.056 0 0 1 725.376 576a20.416 20.416 0 0 1-14.976-5.952 18.048 18.048 0 0 1-6.4-14.016V448H512V640h108.032a18.496 18.496 0 0 1 14.08 6.4 21.44 21.44 0 0 1 5.888 14.976 21.632 21.632 0 0 1-5.952 14.976L494.08 825.6a18.688 18.688 0 0 1-28.224 0L325.952 676.352A20.8 20.8 0 0 1 320 661.376c0-5.824 1.856-10.816 5.952-14.976 3.904-4.352 8.576-6.4 14.016-6.4H448v-192H256V556.032a18.176 18.176 0 0 1-6.4 14.08A20.608 20.608 0 0 1 234.624 576a20.8 20.8 0 0 1-14.976-5.952L70.4 430.144a18.752 18.752 0 0 1 0-28.224l149.248-140.032a21.888 21.888 0 0 1 29.952 0.064 18.368 18.368 0 0 1 6.4 14.016V384h192v-192H339.968a18.176 18.176 0 0 1-14.08-6.4 20.608 20.608 0 0 1-5.888-14.976c0-5.696 1.856-10.688 5.952-14.976L465.856 6.4a18.752 18.752 0 0 1 28.224 0l140.032 149.248a21.888 21.888 0 0 1-0.064 29.952 18.368 18.368 0 0 1-14.016 6.4H512V384h192v-108.032c0-5.376 2.048-10.048 6.4-14.08 4.16-3.84 9.152-5.888 14.976-5.888a21.632 21.632 0 0 1 14.976 5.952L889.6 401.92a18.688 18.688 0 0 1 0 28.224z"  horiz-adv-x="1024" />

    
    <glyph glyph-name="export" unicode="&#59590;" d="M328 320h152V768h64v-448h152L512 128 328 320z m568 64h-64v-320H192V384h-64v-384h768V384z"  horiz-adv-x="1024" />

    
    <glyph glyph-name="doc" unicode="&#59543;" d="M897.105863 480.000359h-32.091557v-576.000718c0-17.669386-14.370468-31.999641-32.091557-31.999641H126.898446C109.174485-128 94.805453-113.669745 94.805453-96.000359V864.000359C94.805453 881.672617 109.174485 896 126.898446 896h706.024303c17.721088 0 32.091557-14.327383 32.091557-31.999641v-96.000359h32.091557c17.721088 0 32.092993-14.327383 32.092993-31.999641v-224.000359c0-17.672258-14.371905-31.999641-32.092993-31.999641z m-64.183114 384H126.898446v-960.000718h706.024303V480.000359H447.818323c-17.723961 0-32.092993 14.327383-32.092993 31.999641V736.000359c0 17.672258 14.369032 31.999641 32.092993 31.999641h385.104426V864.000359z m-98.171871-237.680022c0 8.367215-1.459164 16.174317-4.361694 23.454339-2.919764 7.249863-7.031562 13.553279-12.326777 18.88009-5.295215 5.329683-11.663259 9.537705-19.124242 12.592471a64.635512 64.635512 0 0 1-24.841694 4.608718 65.841907 65.841907 0 0 1-24.870418-4.561324c-7.492578-3.038968-13.880729-7.229756-19.206103-12.559439-5.323938-5.328247-9.437173-11.630227-12.355501-18.88009-2.918328-7.24699-4.381801-15.102923-4.381801-23.534765a62.021655 62.021655 0 0 1 4.381801-23.520404c2.918328-7.265661 7.031562-13.567641 12.355501-18.927484 5.325374-5.359843 11.713526-9.567865 19.206103-12.592471a65.597756 65.597756 0 0 1 24.870418-4.559888c9.116903 0 17.380712 1.519484 24.841694 4.559888 7.44662 3.024606 13.829027 7.232628 19.124242 12.592471 5.295215 5.359843 9.422811 11.680494 12.326777 18.927484 2.90253 7.24699 4.361694 15.105795 4.361694 23.520404z m-128.367663 0c0 8.367215-1.444802 16.144157-4.363131 23.264763-2.918328 7.120606-7.030126 13.261734-12.325341 18.430563-5.295215 5.16883-11.663259 9.231798-19.124241 12.16018-7.462418 2.928381-15.740589 4.399035-24.821588 4.399035h-45.41361v-116.559349h45.41361c9.096797 0 17.374968 1.439058 24.821588 4.351641 7.445184 2.912583 13.829027 6.959753 19.124241 12.160179 5.295215 5.200426 9.421374 11.360224 12.325341 18.480831 2.903966 7.11917 4.36313 14.897548 4.363131 23.312157z m228.334765 50.286586a50.608292 50.608292 0 0 1-9.307915 4.897391 62.010165 62.010165 0 0 1-23.2662 4.351641c-9.04653 0-17.294541-1.456292-24.791427-4.400471-7.491142-2.942743-13.925251-7.04018-19.299456-12.321032-5.375641-5.279417-9.563557-11.567035-12.550822-18.847058-2.984393-7.280022-4.493823-15.262339-4.493823-23.967057 0-8.528067 1.318418-16.43283 3.930838-23.712853 2.618165-7.280022 6.37379-13.567641 11.282671-18.88009a51.406811 51.406811 0 0 1 17.876196-12.479013c7.025818-3.008808 14.988028-4.51393 23.873706-4.513929 9.662654 0 18.051411 1.571187 25.147601 4.69058a44.398227 44.398227 0 0 1 17.695237 13.86924l-10.749845 11.281234c-0.593144 0.577346-1.203523 0.992404-1.845498 1.232247a5.457504 5.457504 0 0 1-1.925925 0.351866 5.833784 5.833784 0 0 1-2.32662-0.495484 9.004881 9.004881 0 0 1-2.086777-1.328472c-1.604219-1.375865-3.188331-2.543484-4.762389-3.471259a25.765161 25.765161 0 0 0-4.989308-2.289279 28.964982 28.964982 0 0 0-5.667186-1.248045 61.839259 61.839259 0 0 0-6.738581-0.351865c-4.282704 0-8.293969 0.832987-12.035231 2.480291-3.735518 1.648741-7.01002 4.064404-9.817762 7.249863-2.807742 3.166788-5.039574 7.068903-6.65959 11.709217-1.620017 4.640314-2.441515 9.938401-2.441515 15.905751a45.756858 45.756858 0 0 0 2.441515 15.454788 34.583338 34.583338 0 0 0 6.820443 11.71209 29.517913 29.517913 0 0 0 10.459736 7.440875c4.075893 1.726295 8.569717 2.592314 13.49296 2.592314a37.536135 37.536135 0 0 0 7.41646-0.640539c1.89002-0.360482 3.735518-0.88469 5.536493-1.566878 1.429004-0.52708 2.807742-1.197778 4.106054-2.000606l3.159607-2.000605c0.881818-0.568729 1.795231-1.087192 2.727315-1.552517 0.847349-0.426547 1.785178-0.646283 2.728752-0.639102a5.365588 5.365588 0 0 1 3.369291 0.927776 10.917879 10.917879 0 0 1 2.08534 2.032202l9.147063 12.240606c-2.197363 2.305077-4.71356 4.399035-7.541408 6.286182z m-264.805251-77.759372c-2.807742-3.232853-6.243097-5.727506-10.31899-7.439439-4.057223-1.727731-8.680303-2.608112-13.864931-2.608112h-18.147635v74.974609h18.147635c4.753773 0.080426 9.467332-0.810008 13.864931-2.606676a28.019972 28.019972 0 0 0 10.31899-7.440875 33.365453 33.365453 0 0 0 6.448472-11.792517c1.509431-4.638878 2.261992-9.855102 2.261991-15.614204 0-5.825167-0.752561-11.039955-2.261991-15.68027-1.473526-4.640314-3.639293-8.575461-6.448472-11.792516z m128.367664 0.112023a27.377997 27.377997 0 0 0-10.31899-7.311619c-4.057223-1.680337-8.694665-2.513324-13.879294-2.513324-5.230586 0-9.898188 0.832987-13.989879 2.513324-4.093128 1.664539-7.541408 4.127596-10.350586 7.311619-2.807742 3.201257-4.959147 7.106244-6.468578 11.727887-1.489324 4.624516-2.246194 9.824942-2.246194 15.632876 0 5.7749 0.75687 10.959529 2.246194 15.56681 1.495069 4.625952 3.646474 8.528067 6.468578 11.713526 2.809178 3.19982 6.257459 5.664314 10.350586 7.359013 4.091691 1.713369 8.759293 2.560718 13.989879 2.560718 4.753773 0.084735 9.471641-0.785593 13.879294-2.560718a27.668107 27.668107 0 0 0 10.31899-7.359013 32.736404 32.736404 0 0 0 6.449907-11.713526c1.507994-4.607282 2.260555-9.807708 2.260556-15.56681 0-5.825167-0.752561-11.025593-2.260556-15.632876-1.474962-4.621644-3.640729-8.526631-6.449907-11.727887z m6.273256-278.958856H255.266109v31.999641h449.28754v-31.999641z m0-96.000359H255.266109v31.999641h449.28754v-31.999641z m0-96.000359H255.266109v31.999641h449.28754v-31.999641z m-208.597273-96.000359h-240.690267v32.001077h240.690267v-32.001077z"  horiz-adv-x="1024" />

    
    <glyph glyph-name="email" unicode="&#58900;" d="M509.9 411.5l428 264.6c-16.8 29.3-48.4 49.1-84.6 49.1H170.8c-41.4 0-76.8-25.8-90.9-62.2l430-251.5zM73.3 610.6v-470.3c0-53.8 43.6-97.5 97.5-97.5h682.5c53.8 0 97.5 43.6 97.5 97.5v486l-438-270.1L73.3 610.6z"  horiz-adv-x="1024" />

    
    <glyph glyph-name="sort-double-down" unicode="&#58880;" d="M311.999 444h400.001l-200.001 240-200.001-240zM712.001 324h-400.001l200.001-240 200.001 240z"  horiz-adv-x="1024" />

    
    <glyph glyph-name="zip" unicode="&#59258;" d="M988.16 629.76L858.453333 759.466667l-136.533333 136.533333H240.64c-44.373333 0-80.213333-35.84-80.213333-80.213333v-129.706667H88.746667c-34.133333 0-61.44-27.306667-61.44-61.44v-177.493333c0-34.133333 27.306667-61.44 61.44-61.44h71.68v-433.493334c0-44.373333 35.84-80.213333 80.213333-80.213333h675.84c44.373333 0 80.213333 35.84 80.213333 80.213333V621.226667l-8.533333 8.533333z m-93.866667 8.533333h-134.826666c-10.24 0-20.48 8.533333-20.48 20.48V793.6l155.306666-155.306667zM153.6 467.626667l83.626667 126.293333H160.426667V622.933333h117.76v-20.48l-81.92-126.293333h83.626666v-29.013333H153.6v20.48z m762.88-535.893334H240.64c-10.24 0-20.48 8.533333-20.48 20.48V385.706667h363.52c34.133333 0 61.44 27.306667 61.44 61.44V624.64c0 34.133333-27.306667 61.44-61.44 61.44H220.16V815.786667c0 10.24 8.533333 20.48 20.48 20.48h438.613333v-177.493334c0-44.373333 35.84-80.213333 80.213334-80.213333h177.493333v-626.346667c0-10.24-10.24-20.48-20.48-20.48zM312.32 447.146667V624.64h35.84v-177.493333h-35.84z m78.506667 0V624.64h58.026666c39.253333 0 69.973333-13.653333 69.973334-56.32 0-40.96-30.72-58.026667-68.266667-58.026667H426.666667v-63.146666h-35.84zM807.253333 162.133333h-18.773333v20.48c0 20.48-17.066667 37.546667-37.546667 37.546667h-93.866666c-20.48 0-37.546667-17.066667-37.546667-37.546667v-66.56h-51.2V196.266667h-81.92v-80.213334h-80.213333V196.266667H324.266667v-81.92h80.213333v-80.213334h81.92v80.213334h80.213333v-80.213334h54.613334c5.12-13.653333 18.773333-22.186667 34.133333-22.186666H750.933333c20.48 0 37.546667 17.066667 37.546667 37.546666v20.48h18.773333c13.653333 0 25.6 11.946667 25.6 25.6v39.253334c0 15.36-11.946667 27.306667-25.6 27.306666z m3.413334-64.853333c0-1.706667-1.706667-3.413333-3.413334-3.413333H725.333333c-1.706667 0-3.413333 1.706667-3.413333 3.413333v39.253333c0 1.706667 1.706667 3.413333 3.413333 3.413334H807.253333c1.706667 0 3.413333-1.706667 3.413334-3.413334v-39.253333zM484.693333 568.32c0 20.48-13.653333 27.306667-37.546666 27.306667H426.666667V537.6h22.186666c23.893333 0 35.84 10.24 35.84 30.72z"  horiz-adv-x="1024" />

    
    <glyph glyph-name="import" unicode="&#58947;" d="M845.2 131.29999999999995H180.8c-18.3 0-33.2 14.9-33.2 33.2V404c0 18.3 14.9 33.2 33.2 33.2S214 422.3 214 404v-206.3h598V404c0 18.3 14.9 33.2 33.2 33.2s33.2-14.9 33.2-33.2v-239.5c0-18.3-14.9-33.2-33.2-33.2zM465.3 811L345 690.8c-13.2-13.2-13.2-34.7 0-47.9 13.2-13.2 34.7-13.2 47.9 0l85.9 86.2V406c0-18.7 15.2-33.9 33.9-33.9s33.9 15.2 33.9 33.9V729.2l86.3-86.3c13.2-13.2 34.7-13.2 47.9 0 13.2 13.2 13.2 34.7 0 47.9L560.8 811c-26.4 26.4-69.1 26.4-95.5 0z"  horiz-adv-x="1024" />

    
    <glyph glyph-name="cha" unicode="&#58886;" d="M512 454.30748639651154L254.3219023179334 712.043592649218a49.71412125496538 49.71412125496538 0 1 1-70.30748492361464-70.30748639651151L441.63450503284866 384l-257.7361077256034-257.6780976820668a49.71412125496538 49.71412125496538 0 1 1 70.30748639651151-70.30748492361464L512 313.63450503284855l257.6780976820668-257.7361077256034a49.71412125496538 49.71412125496538 0 1 1 70.30748492361464 70.30748639651151L582.3654949671514 384l257.7361077256034 257.6780976820668a49.71412125496538 49.71412125496538 0 1 1-70.30748639651151 70.30748492361464L512 454.36549496715134z"  horiz-adv-x="1024" />

    
    <glyph glyph-name="delete" unicode="&#58892;" d="M512 864C246.4 864 32 649.6 32 384s214.4-480 480-480 480 214.4 480 480S777.6 864 512 864m201.6-681.6c-12.8-12.8-35.2-12.8-48 0L512 336l-153.6-153.6c-12.8-12.8-35.2-12.8-48 0-12.8 12.8-12.8 35.2 0 48l153.6 153.6-153.6 153.6c-12.8 12.8-12.8 35.2 0 48 12.8 12.8 35.2 12.8 48 0l153.6-153.6 153.6 153.6c12.8 12.8 35.2 12.8 48 0 12.8-12.8 12.8-35.2 0-48L560 384l153.6-153.6c16-12.8 16-35.2 0-48m0 0z"  horiz-adv-x="1024" />

    
    <glyph glyph-name="left-arrow" unicode="&#58899;" d="M498.9 100.29999999999995l-424.5 283 424.49999999999983 283.10000000000014zM852.7 100.30000000000007l-424.5 283 424.49999999999983 283.10000000000014z"  horiz-adv-x="1024" />

    


  </font>
</defs>
</svg>
